[Header]
FileType HTR
DataType HTRS
FileVersion 1
NumSegments 64
NumFrames 3
DataFrameRate 24
EulerRotationOrder ZYX
CalibrationUnits mm
RotationUnits Degrees
GlobalAxisofGravity Y
BoneLengthAxis Y
ScaleFactor 1.0
[SegmentNames&Hierarchy]
Hips	GLOBAL
Spine	Hips
Spine1	Spine
Spine2	Spine1
Neck	Spine2
Head	Neck
LeftEye	Head
RightEye	Head
LeftShoulder	Spine2
LeftArm	LeftShoulder
LeftForeArm	LeftArm
LeftHand	LeftForeArm
LeftHandThumb1	LeftHand
LeftHandThumb2	LeftHandThumb1
LeftHandThumb3	LeftHandThumb2
LeftHandThumb4	LeftHandThumb3
LeftHandIndex1	LeftHand
LeftHandIndex2	LeftHandIndex1
LeftHandIndex3	LeftHandIndex2
LeftHandIndex4	LeftHandIndex3
LeftHandMiddle1	LeftHand
LeftHandMiddle2	LeftHandMiddle1
LeftHandMiddle3	LeftHandMiddle2
LeftHandMiddle4	LeftHandMiddle3
LeftHandRing1	LeftHand
LeftHandRing2	LeftHandRing1
LeftHandRing3	LeftHandRing2
LeftHandRing4	LeftHandRing3
LeftHandPinky1	LeftHand
LeftHandPinky2	LeftHandPinky1
LeftHandPinky3	LeftHandPinky2
LeftHandPinky4	LeftHandPinky3
RightShoulder	Spine2
RightArm	RightShoulder
RightForeArm	RightArm
RightHand	RightForeArm
RightHandPinky1	RightHand
RightHandPinky2	RightHandPinky1
RightHandPinky3	RightHandPinky2
RightHandPinky4	RightHandPinky3
RightHandRing1	RightHand
RightHandRing2	RightHandRing1
RightHandRing3	RightHandRing2
RightHandRing4	RightHandRing3
RightHandMiddle1	RightHand
RightHandMiddle2	RightHandMiddle1
RightHandMiddle3	RightHandMiddle2
RightHandMiddle4	RightHandMiddle3
RightHandIndex1	RightHand
RightHandIndex2	RightHandIndex1
RightHandIndex3	RightHandIndex2
RightHandIndex4	RightHandIndex3
RightHandThumb1	RightHand
RightHandThumb2	RightHandThumb1
RightHandThumb3	RightHandThumb2
RightHandThumb4	RightHandThumb3
LeftUpLeg	Hips
LeftLeg	LeftUpLeg
LeftFoot	LeftLeg
LeftToeBase	LeftFoot
RightUpLeg	Hips
RightLeg	RightUpLeg
RightFoot	RightLeg
RightToeBase	RightFoot
[BasePosition]
Hips	0	0	0	0	0	0	1
Spine	0	0	0	0	0	0	1
Spine1	0	0	0	0	0	0	1
Spine2	0	0	0	0	0	0	1
Neck	0	0	0	0	0	0	1
Head	0	0	0	0	0	0	1
LeftEye	0	0	0	0	0	0	1
RightEye	0	0	0	0	0	0	1
LeftShoulder	0	0	0	0	0	0	1
LeftArm	0	0	0	0	0	0	1
LeftForeArm	0	0	0	0	0	0	1
LeftHand	0	0	0	0	0	0	1
LeftHandThumb1	0	0	0	0	0	0	1
LeftHandThumb2	0	0	0	0	0	0	1
LeftHandThumb3	0	0	0	0	0	0	1
LeftHandThumb4	0	0	0	0	0	0	1
LeftHandIndex1	0	0	0	0	0	0	1
LeftHandIndex2	0	0	0	0	0	0	1
LeftHandIndex3	0	0	0	0	0	0	1
LeftHandIndex4	0	0	0	0	0	0	1
LeftHandMiddle1	0	0	0	0	0	0	1
LeftHandMiddle2	0	0	0	0	0	0	1
LeftHandMiddle3	0	0	0	0	0	0	1
LeftHandMiddle4	0	0	0	0	0	0	1
LeftHandRing1	0	0	0	0	0	0	1
LeftHandRing2	0	0	0	0	0	0	1
LeftHandRing3	0	0	0	0	0	0	1
LeftHandRing4	0	0	0	0	0	0	1
LeftHandPinky1	0	0	0	0	0	0	1
LeftHandPinky2	0	0	0	0	0	0	1
LeftHandPinky3	0	0	0	0	0	0	1
LeftHandPinky4	0	0	0	0	0	0	1
RightShoulder	0	0	0	0	0	0	1
RightArm	0	0	0	0	0	0	1
RightForeArm	0	0	0	0	0	0	1
RightHand	0	0	0	0	0	0	1
RightHandPinky1	0	0	0	0	0	0	1
RightHandPinky2	0	0	0	0	0	0	1
RightHandPinky3	0	0	0	0	0	0	1
RightHandPinky4	0	0	0	0	0	0	1
RightHandRing1	0	0	0	0	0	0	1
RightHandRing2	0	0	0	0	0	0	1
RightHandRing3	0	0	0	0	0	0	1
RightHandRing4	0	0	0	0	0	0	1
RightHandMiddle1	0	0	0	0	0	0	1
RightHandMiddle2	0	0	0	0	0	0	1
RightHandMiddle3	0	0	0	0	0	0	1
RightHandMiddle4	0	0	0	0	0	0	1
RightHandIndex1	0	0	0	0	0	0	1
RightHandIndex2	0	0	0	0	0	0	1
RightHandIndex3	0	0	0	0	0	0	1
RightHandIndex4	0	0	0	0	0	0	1
RightHandThumb1	0	0	0	0	0	0	1
RightHandThumb2	0	0	0	0	0	0	1
RightHandThumb3	0	0	0	0	0	0	1
RightHandThumb4	0	0	0	0	0	0	1
LeftUpLeg	0	0	0	0	0	0	1
LeftLeg	0	0	0	0	0	0	1
LeftFoot	0	0	0	0	0	0	1
LeftToeBase	0	0	0	0	0	0	1
RightUpLeg	0	0	0	0	0	0	1
RightLeg	0	0	0	0	0	0	1
RightFoot	0	0	0	0	0	0	1
RightToeBase	0	0	0	0	0	0	1
[Hips]
4	0.2418938428	1022.509766	38.31287766	2.865355492	0.01621236466	-0.2092624307	1.0
5	0.08068013191	1007.283691	50.54508591	3.759056091	0.003418720094	-0.03575177863	1.0
6	-0.6761331558	977.1499634	71.03788757	4.73210144	-0.06136389449	0.6939191818	1.0
[Spine]
4	0	101.8159943	1.315000057	9.474642754	-0.005728984252	0.2097889036	1.0
5	0	101.8159943	1.315000057	8.333289146	-0.001065618126	0.03587664664	1.0
6	0	101.8159943	1.315000057	4.487462044	0.003906038823	-0.6966382265	1.0
[Spine1]
4	0	100.8349991	-10.00800037	-7.394846439	-3.205858957e-05	5.929246981e-05	1.0
5	0	100.8349991	-10.00800037	-8.333368301	-3.106341319e-05	5.981988943e-05	1.0
6	0	100.8349991	-10.00800037	-11.53304005	-2.760707503e-05	6.149163528e-05	1.0
[Spine2]
4	0	91	-13.73399925	1.606606364	1.306888908e-08	3.163177098e-07	1.0
5	0	91	-13.73399925	-2.89658492e-05	2.28139676e-08	3.157664707e-07	1.0
6	0	91	-13.73399925	-5.408501625	5.541174986e-08	3.116977041e-07	1.0
[Neck]
4	0	166.7169952	-25.16200066	-0.3709954917	3.11641827e-07	3.537875841e-07	1.0
5	0	166.7169952	-25.16200066	-1.044204712	3.1618859e-07	3.497485181e-07	1.0
6	0	166.7169952	-25.16200066	-2.62813139	3.266830788e-07	3.399574098e-07	1.0
[Head]
4	0	96.17900085	16.84999847	-3.386482716	0.01933439821	-0.001195881865	1.0
5	0	96.17900085	16.84999847	-2.08839488	3.725386341e-05	-3.143868162e-05	1.0
6	0	96.17900085	16.84999847	3.658619881	-0.06103876978	-0.007338986266	1.0
[LeftEye]
4	30.6760006	64.09500122	92.83599854	0	0	0	1.0
5	30.6760006	64.09500122	92.83599854	0	0	0	1.0
6	30.6760006	64.09500122	92.83599854	0	0	0	1.0
[RightEye]
4	-30.6760006	64.09500122	92.83499908	0	0	0	1.0
5	-30.6760006	64.09500122	92.83499908	0	0	0	1.0
6	-30.6760006	64.09500122	92.83499908	0	0	0	1.0
[LeftShoulder]
4	45.70400238	109.4599991	-26.28000069	-2.317831278	4.979376316	-10.14205074	1.0
5	45.70400238	109.4599991	-26.28000069	-2.431703091	6.851007938	-9.142532349	1.0
6	45.70400238	109.4599991	-26.28000069	-0.6499016881	9.410668373	-2.135110617	1.0
[LeftArm]
4	105.923996	-5.24600029	-22.32099915	8.820008278	-5.306637764	-49.50117874	1.0
5	105.923996	-5.24600029	-22.32099915	7.264755726	-0.2334679514	-58.06587601	1.0
6	105.923996	-5.24600029	-22.32099915	0.6978468895	13.92754555	-55.3643074	1.0
[LeftForeArm]
4	278.414978	-0.0009999999311	0	1.919632723e-06	1.41730834e-06	-0.0001966009586	1.0
5	278.414978	-0.0009999999311	0	2.155863058e-06	-0.4166637361	-0.0002151382214	1.0
6	278.414978	-0.0009999999311	0	2.356693614e-07	-3.710000277	-0.0001982797548	1.0
[LeftHand]
4	283.2879944	0	0	-0.5963820815	-3.053900719	2.111279249	1.0
5	283.2879944	0	0	-5.894140244	-2.348035097	3.36248517	1.0
6	283.2879944	0	0	-22.00798225	0.6328041553	6.189455509	1.0
[LeftHandThumb1]
4	24.6609993	-15.75	26.8239994	-6.744794846	-3.155729055	3.649734974	1.0
5	24.6609993	-15.75	26.8239994	-6.515938282	-5.594459057	5.268270016	1.0
6	24.6609993	-15.75	26.8239994	-6.704843998	-12.89084244	11.68540382	1.0
[LeftHandThumb2]
4	32.29800034	-18.64699936	18.64699936	7.071595669	13.35256672	3.03598237	1.0
5	32.29800034	-18.64699936	18.64699936	6.421833038	12.43069267	2.707351446	1.0
6	32.29800034	-18.64699936	18.64699936	3.546167374	8.148301125	1.31436336	1.0
[LeftHandThumb3]
4	26.52600098	-15.31499958	15.31499958	-6.554171562	1.959804058	13.29880714	1.0
5	26.52600098	-15.31499958	15.31499958	-7.23757267	1.261262059	13.09553432	1.0
6	26.52600098	-15.31499958	15.31499958	-10.52041245	-2.165928364	12.20841599	1.0
[LeftHandThumb4]
4	19.54599953	-11.28499985	11.28499985	0	0	0	1.0
5	19.54599953	-11.28499985	11.28499985	0	0	0	1.0
6	19.54599953	-11.28499985	11.28499985	0	0	0	1.0
[LeftHandIndex1]
4	91.09299469	-5.170999527	22.60099792	-0.1297595948	4.466348171	-4.371561527	1.0
5	91.09299469	-5.170999527	22.60099792	-0.0726185441	2.677018642	-3.10709548	1.0
6	91.09299469	-5.170999527	22.60099792	0.2090711147	-3.15809989	2.259385347	1.0
[LeftHandIndex2]
4	36.76399994	0	0	-0.004536210559	0.2302374244	-2.257383823	1.0
5	36.76399994	0	0	8.489994912e-07	-1.273499265e-06	-9.337169615e-08	1.0
6	36.76399994	0	0	0	-1.590277359e-15	0	1.0
[LeftHandIndex3]
4	28.83100128	0	0	-0.001780922175	0.1443205774	-1.414762378	1.0
5	28.83100128	0	0	4.244997456e-07	-0	-2.981770115e-16	1.0
6	28.83100128	0	0	-0.03618377075	-0.649366498	6.378490448	1.0
[LeftHandIndex4]
4	23.92700005	0	0	0	0	0	1.0
5	23.92700005	0	0	0	0	0	1.0
6	23.92700005	0	0	0	0	0	1.0
[LeftHandMiddle1]
4	95.33399963	0	0	-0.1924617589	3.645699501	-5.583598614	1.0
5	95.33399963	0	0	-0.07261768728	2.677019835	-3.10709548	1.0
6	95.33399963	0	0	0.3135387599	-0.4407455623	6.371018887	1.0
[LeftHandMiddle2]
4	36.98199844	0	0	-0.00179179199	0.144784674	-1.41932106	1.0
5	36.98199844	0	0	4.244997456e-07	7.951386796e-16	1.639973523e-15	1.0
6	36.98199844	0	0	-3.180554719e-15	-0	7.951386796e-16	1.0
[LeftHandMiddle3]
4	29.50900078	0	0	-0.0006844748277	0.08941458911	-0.8764694333	1.0
5	29.50900078	0	0	5.16693035e-08	1.607693321e-06	-1.383077051e-05	1.0
6	29.50900078	0	0	-0.01469817199	-0.4143006206	4.064424038	1.0
[LeftHandMiddle4]
4	28.3390007	0	0	0	0	0	1.0
5	28.3390007	0	0	0	0	0	1.0
6	28.3390007	0	0	0	0	0	1.0
[LeftHandRing1]
4	91.04499817	-0.4390000105	-18.65100098	-0.1998918504	1.913918495	-5.703955173	1.0
5	91.04499817	-0.4390000105	-18.65100098	-0.07261768728	2.677019835	-3.10709548	1.0
6	91.04499817	-0.4390000105	-18.65100098	0.2780698836	4.735373497	6.634568214	1.0
[LeftHandRing2]
4	31.54000092	0	0	-0.001946535427	0.1508358568	-1.478639364	1.0
5	31.54000092	0	0	4.244997456e-07	7.951386796e-16	1.639973523e-15	1.0
6	31.54000092	0	0	-3.180554719e-15	3.180554719e-15	1.590277359e-15	1.0
[LeftHandRing3]
4	29.37700081	0	0	-0.003114132443	0.190813899	-1.870684862	1.0
5	29.37700081	0	0	7.951386796e-16	4.244997456e-07	3.112388569e-08	1.0
6	29.37700081	0	0	-0.04576749727	-0.730006516	7.174563885	1.0
[LeftHandRing4]
4	26.47500038	0	0	0	0	0	1.0
5	26.47500038	0	0	0	0	0	1.0
6	26.47500038	0	0	0	0	0	1.0
[LeftHandPinky1]
4	80.77799988	-4.887000084	-38.06099701	-0.1639506519	-0.7080916762	-5.168122768	1.0
5	80.77799988	-4.887000084	-38.06099701	-0.07261768728	2.677016497	-3.107095718	1.0
6	80.77799988	-4.887000084	-38.06099701	0.2726015151	13.06805325	4.254723549	1.0
[LeftHandPinky2]
4	36	0	0	-0.002742989687	0.179093197	-1.755739927	1.0
5	36	0	0	2.89926561e-07	4.954948096e-08	-1.661380156e-05	1.0
6	36	0	0	4.702663318e-06	-7.618691143e-06	2.69812017e-06	1.0
[LeftHandPinky3]
4	21.14200211	0	0	-0.002017591381	0.1534991264	-1.504754424	1.0
5	21.14200211	0	0	0	-0	1.490885031e-15	1.0
6	21.14200211	0	0	-0.03745535389	-0.6606482863	6.489876747	1.0
[LeftHandPinky4]
4	19.75699997	0	0	0	0	0	1.0
5	19.75699997	0	0	0	0	0	1.0
6	19.75699997	0	0	0	0	0	1.0
[RightShoulder]
4	-45.70000076	109.4620056	-26.28000069	-2.317804575	-4.979380131	10.14205456	1.0
5	-45.70000076	109.4620056	-26.28000069	-2.431690693	-6.851010799	9.142530441	1.0
6	-45.70000076	109.4620056	-26.28000069	-0.6498805285	-9.410668373	2.135110617	1.0
[RightArm]
4	-105.9280014	-5.248000145	-22.32099915	8.820196152	5.306591034	49.501297	1.0
5	-105.9280014	-5.248000145	-22.32099915	7.264944077	0.2333963662	58.06601715	1.0
6	-105.9280014	-5.248000145	-22.32099915	0.6979663372	-13.92758083	55.36445618	1.0
[RightForeArm]
4	-278.414978	0	0	2.170764446e-06	-0.0002030256583	3.399281638e-07	1.0
5	-278.414978	0	0	1.107929052e-06	0.4164611399	1.568638595e-06	1.0
6	-278.414978	0	0	-1.597009032e-06	3.709805727	-1.123077527e-05	1.0
[RightHand]
4	-283.2879944	0	0.0009999999311	0.6238632798	2.911003828	-1.363793612	1.0
5	-283.2879944	0	0.0009999999311	-4.682253361	2.27472496	-2.60531497	1.0
6	-283.2879944	0	0.0009999999311	-20.83399582	-0.4929982126	-5.442203522	1.0
[RightHandPinky1]
4	-80.76699829	-4.885000229	-38.06000137	-0.1346651465	0.9475018978	4.404706955	1.0
5	-80.76699829	-4.885000229	-38.06000137	-0.05218950659	-2.47895813	2.413301229	1.0
6	-80.76699829	-4.885000229	-38.06000137	0.2480662763	-13.3867178	-4.756771564	1.0
[RightHandPinky2]
4	-36	0	0.0009999999311	-0.00214058999	-0.140862748	1.759099483	1.0
5	-36	0	0.0009999999311	2.660945597e-07	0.001591729815	6.499083156e-07	1.0
6	-36	0	0.0009999999311	-4.127847575e-08	0.001593578723	2.200073686e-05	1.0
[RightHandPinky3]
4	-21.14200211	0	0	-0.001607117243	-0.1220964119	1.507625461	1.0
5	-21.14200211	0	0	3.975693398e-16	-0	-2.782985405e-15	1.0
6	-21.14200211	0	0	-0.02985278517	0.5254983902	-6.502159119	1.0
[RightHandPinky4]
4	-19.75699997	0	0	0	0	0	1.0
5	-19.75699997	0	0	0	0	0	1.0
6	-19.75699997	0	0	0	0	0	1.0
[RightHandRing1]
4	-91.03599548	-0.4390000105	-18.65100098	-0.1686284691	-1.661488771	4.993664742	1.0
5	-91.03599548	-0.4390000105	-18.65100098	-0.05218923464	-2.477364779	2.413300514	1.0
6	-91.03599548	-0.4390000105	-18.65100098	0.2787380517	-4.736624241	-7.282551289	1.0
[RightHandRing2]
4	-31.54000092	0	0	-0.001549798646	-0.1199748814	1.481483936	1.0
5	-31.54000092	0	0	5.611290703e-07	-4.962931257e-07	7.45921061e-05	1.0
6	-31.54000092	0	0	-1.505439968e-06	-2.383640094e-06	-3.925656983e-06	1.0
[RightHandRing3]
4	-29.37700081	0	0	-0.002483691089	-0.1517751068	1.874258637	1.0
5	-29.37700081	0	0	-2.125282208e-07	8.501128832e-07	4.453098512e-08	1.0
6	-29.37700081	0	0	-0.03646837547	0.5806568861	-7.188142776	1.0
[RightHandRing4]
4	-26.47500038	0	0	0	0	0	1.0
5	-26.47500038	0	0	0	0	0	1.0
6	-26.47500038	0	0	0	0	0	1.0
[RightHandMiddle1]
4	-95.32500458	0	0	-0.1632849425	-3.395353079	4.908584118	1.0
5	-95.32500458	0	0	-0.05218923464	-2.477364779	2.413300514	1.0
6	-95.32500458	0	0	0.3182532489	0.4438531101	-7.126770496	1.0
[RightHandMiddle2]
4	-36.98199844	0	0	-0.001429038355	-0.1151631325	1.422062039	1.0
5	-36.98199844	0	0	-2.125281355e-07	-4.250562711e-07	-2.226544282e-08	1.0
6	-36.98199844	0	0	3.180554719e-15	3.180554719e-15	7.951386796e-16	1.0
[RightHandMiddle3]
4	-29.50900078	0	0	-0.0005473899073	-0.07314340025	0.8781294227	1.0
5	-29.50900078	0	0	2.441681772e-07	-0.002021743683	3.233785151e-07	1.0
6	-29.50900078	0	0	-0.01171591971	0.3275165558	-4.072175503	1.0
[RightHandMiddle4]
4	-28.3390007	0	0.0009999999311	0	0	0	1.0
5	-28.3390007	0	0.0009999999311	0	0	0	1.0
6	-28.3390007	0	0.0009999999311	0	0	0	1.0
[RightHandIndex1]
4	-91.08300018	-5.167999744	22.60099792	-0.1067642719	-4.240485191	3.713911295	1.0
5	-91.08300018	-5.167999744	22.60099792	-0.05218986049	-2.477361917	2.413314104	1.0
6	-91.08300018	-5.167999744	22.60099792	0.2152129561	3.245920181	-3.072339535	1.0
[RightHandIndex2]
4	-36.76399994	0	0	-0.003614102257	-0.1831346005	2.261665344	1.0
5	-36.76399994	0	0	9.75795178e-09	1.659626264e-06	-1.117814645e-05	1.0
6	-36.76399994	0	0	6.859508176e-06	9.907596905e-06	-8.499497198e-06	1.0
[RightHandIndex3]
4	-28.83100128	0	0	-0.001419942942	-0.1147964299	1.41745019	1.0
5	-28.83100128	0	0	-3.975693398e-16	-7.951386796e-16	-1.540581195e-15	1.0
6	-28.83100128	0	0	-0.02884011902	0.5165123343	-6.390564442	1.0
[RightHandIndex4]
4	-23.92700005	0	0	0	0	0	1.0
5	-23.92700005	0	0	0	0	0	1.0
6	-23.92700005	0	0	0	0	0	1.0
[RightHandThumb1]
4	-24.64799881	-15.72700024	26.82600021	-7.806267738	5.220324993	-3.371661663	1.0
5	-24.64799881	-15.72700024	26.82600021	-7.53546524	7.62022543	-5.027772427	1.0
6	-24.64799881	-15.72700024	26.82600021	-7.603658676	14.78453541	-11.57792854	1.0
[RightHandThumb2]
4	-32.29800034	-18.64699936	18.64699936	7.753819466	-15.02958679	-4.121493816	1.0
5	-32.29800034	-18.64699936	18.64699936	7.098089695	-14.1049366	-3.792279959	1.0
6	-32.29800034	-18.64699936	18.64699936	4.219107628	-9.855018616	-2.41746521	1.0
[RightHandThumb3]
4	-26.52600098	-15.31399918	15.31399918	-3.250018358	-7.404263496	-14.48030376	1.0
5	-26.52600098	-15.31399918	15.31399918	-3.950473547	-6.71465683	-14.22185898	1.0
6	-26.52600098	-15.31399918	15.31399918	-7.295594692	-3.320770741	-13.0729084	1.0
[RightHandThumb4]
4	-19.54599953	-11.28499985	11.28499985	0	0	0	1.0
5	-19.54599953	-11.28499985	11.28499985	0	0	0	1.0
6	-19.54599953	-11.28499985	11.28499985	0	0	0	1.0
[LeftUpLeg]
4	82.07800293	-67.51699829	-15.99599934	-11.20918846	-0.3600066602	-0.04354425147	1.0
5	82.07800293	-67.51699829	-15.99599934	-12.93089867	-0.3918823004	-0.0822141543	1.0
6	82.07800293	-67.51699829	-15.99599934	-18.13924026	-0.1249464303	-0.1480363905	1.0
[LeftLeg]
4	0	-443.7049866	2.845999956	22.32016373	1.699990153	1.077187538	1.0
5	0	-443.7049866	2.845999956	26.21679497	-0.9826165438	-0.4414791167	1.0
6	0	-443.7049866	2.845999956	38.00470352	-4.515824795	-5.373274326	1.0
[LeftFoot]
4	0	-444.2789917	-29.8219986	-10.83040714	-2.765809536	0.1203985885	1.0
5	0	-444.2789917	-29.8219986	-17.03470802	-0.1080296338	0.4744566083	1.0
6	0	-444.2789917	-29.8219986	-26.30633354	5.655222893	1.375871062	1.0
[LeftToeBase]
4	0	-87.28699493	107.1060028	-5.087604523	-1.790891417e-07	6.325399315e-09	1.0
5	0	-87.28699493	107.1060028	-0.975168407	4.961301556e-07	-4.076891287e-07	1.0
6	0	-87.28699493	107.1060028	5.470589638	-0.01194592752	0.04703204334	1.0
[RightUpLeg]
4	-82.07800293	-67.51699829	-15.99599934	-8.886709213	-0.09866278619	0.5018619299	1.0
5	-82.07800293	-67.51699829	-15.99599934	-12.9414711	-0.4419012368	0.2144438624	1.0
6	-82.07800293	-67.51699829	-15.99599934	-22.43166924	-1.016113162	-0.9780886769	1.0
[RightLeg]
4	0	-443.7049866	2.861999989	18.24341965	-2.378709555	-1.13724339	1.0
5	0	-443.7049866	2.861999989	26.17661095	0.3838891387	0.1887850612	1.0
6	0	-443.7049866	2.861999989	39.7852211	4.758373737	5.600827217	1.0
[RightFoot]
4	0	-444.2770081	-29.83799934	-12.20502663	2.656232119	0.03314153105	1.0
5	0	-444.2770081	-29.83799934	-16.99312973	-0.03954984248	-0.2747998834	1.0
6	0	-444.2770081	-29.83799934	-21.76661682	-6.183199883	-1.307013869	1.0
[RightToeBase]
4	0	-87.28699493	107.1060028	-1.515573604e-05	-2.909377805e-08	-1.999551955e-07	1.0
5	0	-87.28699493	107.1060028	-1.515573604e-05	-2.909377805e-08	-1.999551955e-07	1.0
6	0	-87.28699493	107.1060028	-1.515573604e-05	-2.909377805e-08	-1.999551955e-07	1.0
[EndOfFile]
